ply
format ascii 1.0
comment Created by Blender 3.1.2 - www.blender.org
element vertex 84
property float x
property float y
property float z
property uchar red
property uchar green
property uchar blue
property uchar alpha
element face 108
property list uchar uint vertex_indices
end_header
-0.500000 -0.466667 0.500000 0 0 0 255
-0.466667 -0.500000 0.500000 0 0 0 255
-0.466667 -0.466667 0.500000 0 0 0 255
-0.500000 -0.500000 0.466667 0 0 0 255
-0.466667 -0.500000 0.466667 0 0 0 255
-0.500000 0.466667 0.500000 0 0 0 255
-0.500000 0.500000 0.466667 0 0 0 255
-0.500000 0.466667 0.466667 0 0 0 255
0.500000 -0.466667 -0.500000 0 0 0 255
0.466667 -0.500000 -0.500000 0 0 0 255
0.466667 -0.466667 -0.500000 0 0 0 255
0.500000 -0.466667 0.500000 0 0 0 255
0.500000 -0.500000 0.466667 0 0 0 255
0.500000 -0.466667 0.466667 0 0 0 255
0.466667 0.500000 0.500000 0 0 0 255
0.500000 0.500000 0.466667 0 0 0 255
0.466667 0.500000 0.466667 0 0 0 255
0.500000 0.500000 0.500000 0 0 0 255
0.500000 0.466667 0.466667 0 0 0 255
0.500000 0.466667 0.500000 0 0 0 255
0.500000 0.500000 -0.500000 0 0 0 255
0.466667 0.466667 -0.500000 0 0 0 255
0.466667 0.500000 -0.500000 0 0 0 255
0.500000 0.466667 -0.500000 0 0 0 255
-0.500000 -0.500000 0.500000 0 0 0 255
-0.500000 -0.466667 0.466667 0 0 0 255
-0.500000 0.500000 0.500000 0 0 0 255
-0.466667 0.466667 0.500000 0 0 0 255
-0.466667 0.500000 0.500000 0 0 0 255
0.466667 0.466667 0.500000 0 0 0 255
-0.466667 0.466667 -0.500000 0 0 0 255
-0.500000 -0.466667 -0.500000 0 0 0 255
-0.500000 0.466667 -0.500000 0 0 0 255
-0.466667 0.500000 -0.500000 0 0 0 255
-0.500000 0.500000 -0.500000 0 0 0 255
-0.466667 0.500000 0.466667 0 0 0 255
-0.466667 -0.466667 -0.500000 0 0 0 255
-0.500000 -0.500000 -0.500000 0 0 0 255
-0.466667 -0.500000 -0.500000 0 0 0 255
0.500000 -0.500000 0.500000 0 0 0 255
0.466667 -0.500000 0.466667 0 0 0 255
0.466667 -0.500000 0.500000 0 0 0 255
0.466667 -0.466667 0.500000 0 0 0 255
0.466667 -0.500000 -0.466667 0 0 0 255
0.500000 -0.500000 -0.466667 0 0 0 255
0.500000 -0.500000 -0.500000 0 0 0 255
-0.466667 0.500000 -0.466667 0 0 0 255
-0.500000 0.500000 -0.466667 0 0 0 255
-0.500000 -0.466667 -0.466667 0 0 0 255
-0.500000 -0.500000 -0.466667 0 0 0 255
0.500000 0.466667 -0.466667 0 0 0 255
0.500000 0.500000 -0.466667 0 0 0 255
0.466667 0.500000 -0.466667 0 0 0 255
0.500000 -0.466667 -0.466667 0 0 0 255
-0.500000 0.466667 -0.466667 0 0 0 255
-0.466667 -0.500000 -0.466667 0 0 0 255
-0.466667 0.466667 0.500000 255 255 255 255
0.466667 -0.466667 0.500000 255 255 255 255
0.466667 0.466667 0.500000 255 255 255 255
0.466667 -0.500000 0.466667 255 1 22 255
-0.466667 -0.500000 -0.466667 255 0 22 255
0.466667 -0.500000 -0.466667 255 0 22 255
-0.466667 0.500000 0.466667 220 220 220 255
0.466667 0.500000 -0.466667 255 255 255 255
-0.466667 0.500000 -0.466667 255 255 255 255
-0.500000 -0.466667 0.466667 255 10 24 255
-0.500000 0.466667 -0.466667 255 0 22 255
-0.500000 -0.466667 -0.466667 255 0 22 255
0.500000 0.466667 0.466667 252 252 252 255
0.500000 -0.466667 -0.466667 255 255 255 255
0.500000 0.466667 -0.466667 255 255 255 255
-0.466667 0.466667 -0.500000 255 255 255 255
0.466667 0.466667 -0.500000 255 255 255 255
0.466667 -0.466667 -0.500000 255 255 255 255
-0.466667 -0.500000 0.466667 255 1 22 255
0.466667 0.500000 0.466667 246 246 246 255
-0.500000 0.466667 0.466667 255 3 22 255
0.500000 -0.466667 0.466667 253 253 253 255
-0.466667 0.466667 -0.500000 255 10 24 255
0.466667 -0.466667 -0.500000 255 8 23 255
-0.466667 -0.466667 -0.500000 255 63 67 255
-0.466667 0.466667 0.500000 255 0 22 255
-0.466667 -0.466667 0.500000 255 0 22 255
0.466667 -0.466667 0.500000 255 0 22 255
3 0 1 2
3 1 3 4
3 5 6 7
3 8 9 10
3 11 12 13
3 14 15 16
3 17 18 15
3 19 13 18
3 20 21 22
3 23 10 21
3 24 25 3
3 0 7 25
3 26 27 28
3 5 2 27
3 29 11 19
3 14 19 17
3 28 29 14
3 30 31 32
3 33 32 34
3 22 30 33
3 26 35 6
3 28 16 35
3 36 37 31
3 10 38 36
3 39 40 12
3 41 4 40
3 42 39 11
3 2 41 42
3 43 38 9
3 44 9 45
3 12 43 44
3 46 22 33
3 47 33 34
3 6 46 47
3 48 32 31
3 49 31 37
3 3 48 49
3 50 8 23
3 51 23 20
3 15 50 51
3 52 20 22
3 16 51 52
3 53 45 8
3 13 44 53
3 54 34 32
3 7 47 54
3 55 37 38
3 4 49 55
3 56 57 58
3 59 60 61
3 62 63 64
3 65 66 67
3 68 69 70
3 0 24 1
3 1 24 3
3 5 26 6
3 8 45 9
3 11 39 12
3 14 17 15
3 17 19 18
3 19 11 13
3 20 23 21
3 23 8 10
3 24 0 25
3 0 5 7
3 26 5 27
3 5 0 2
3 29 42 11
3 14 29 19
3 28 27 29
3 30 36 31
3 33 30 32
3 22 21 30
3 26 28 35
3 28 14 16
3 36 38 37
3 10 9 38
3 39 41 40
3 41 1 4
3 42 41 39
3 2 1 41
3 43 55 38
3 44 43 9
3 12 40 43
3 46 52 22
3 47 46 33
3 6 35 46
3 48 54 32
3 49 48 31
3 3 25 48
3 50 53 8
3 51 50 23
3 15 18 50
3 52 51 20
3 16 15 51
3 53 44 45
3 13 12 44
3 54 47 34
3 7 6 47
3 55 49 37
3 4 3 49
3 71 72 73
3 59 74 60
3 62 75 63
3 65 76 66
3 68 77 69
3 78 79 80
3 81 82 83
